<?xml version="1.0" standalone="no"?>
<!DOCTYPE svg PUBLIC "-//W3C//DTD SVG 20010904//EN"
 "http://www.w3.org/TR/2001/REC-SVG-20010904/DTD/svg10.dtd">
<svg version="1.0" xmlns="http://www.w3.org/2000/svg"
 width="700.000000pt" height="700.000000pt" viewBox="0 0 700.000000 700.000000"
 preserveAspectRatio="xMidYMid meet">
<metadata>
Created by potrace 1.14, written by Peter Selinger 2001-2017
</metadata>
<g transform="translate(0.000000,700.000000) scale(0.100000,-0.100000)"
fill="#000000" stroke="none">
<path d="M0 3500 l0 -3500 3500 0 3500 0 0 3500 0 3500 -3500 0 -3500 0 0
-3500z m6990 0 l0 -3490 -3490 0 -3490 0 0 3490 0 3490 3490 0 3490 0 0 -3490z"/>
<path d="M3070 4795 l0 -195 155 0 155 0 0 195 0 195 -155 0 -155 0 0 -195z"/>
<path d="M650 3606 l0 -1276 170 0 170 0 0 540 0 540 233 0 c128 0 260 -5 292
-11 131 -24 229 -95 321 -232 27 -40 134 -243 239 -452 l190 -380 182 -3 c101
-1 183 0 183 3 0 11 -361 726 -415 820 -103 183 -205 297 -310 350 -45 23 -48
26 -27 32 48 12 159 72 209 112 68 54 135 156 169 256 23 67 28 102 32 216 14
406 -157 639 -536 731 -81 20 -121 22 -594 25 l-508 4 0 -1275z m1002 966
c193 -64 286 -217 276 -452 -10 -206 -93 -329 -262 -389 -91 -32 -186 -40
-443 -41 l-233 0 0 456 0 456 298 -4 c273 -4 302 -6 364 -26z"/>
<path d="M4886 4520 c-43 -177 -82 -336 -87 -355 l-10 -35 -310 0 -310 0 3
-127 3 -128 273 -3 c208 -2 272 -5 272 -15 0 -6 -31 -133 -68 -282 l-68 -270
-302 -3 -302 -2 0 -130 0 -130 269 0 269 0 -89 -352 c-49 -194 -89 -354 -89
-356 0 -1 62 -1 137 0 l137 3 81 325 c45 179 85 337 88 353 l7 27 250 0 c138
0 250 -2 250 -5 0 -3 -38 -158 -85 -345 -47 -187 -85 -344 -85 -350 0 -6 49
-10 134 -10 l134 0 88 355 89 355 307 0 308 0 0 130 0 130 -274 2 -274 3 70
283 70 282 299 0 299 0 0 130 0 130 -265 0 c-146 0 -265 2 -265 4 0 2 38 159
85 349 47 190 85 348 85 351 0 3 -60 6 -133 6 l-134 0 -89 -352 -90 -353 -239
-3 c-132 -1 -245 0 -251 2 -8 3 14 106 71 328 45 178 85 335 89 351 l6 27
-138 0 -138 0 -78 -320z m610 -667 c-5 -18 -122 -489 -131 -530 l-5 -23 -250
0 c-165 0 -250 4 -250 10 0 10 127 523 135 548 3 9 64 12 255 12 235 0 251 -1
246 -17z"/>
<path d="M3070 3290 l0 -960 155 0 155 0 0 960 0 960 -155 0 -155 0 0 -960z"/>
</g>
</svg>
