<?xml version="1.0" encoding="UTF-8" standalone="no"?>
<!-- Created with Inkscape (http://www.inkscape.org/) -->

<svg
   width="99.791mm"
   height="99.791mm"
   viewBox="0 0 99.791 99.791001"
   version="1.1"
   id="svg1"
   xml:space="preserve"
   inkscape:version="1.3.2 (091e20e, 2023-11-25, custom)"
   sodipodi:docname="Binnenkant_BvdL.svg"
   inkscape:export-filename="Binnenkant_BvdL.png"
   inkscape:export-xdpi="1018.1279"
   inkscape:export-ydpi="1018.1279"
   xmlns:inkscape="http://www.inkscape.org/namespaces/inkscape"
   xmlns:sodipodi="http://sodipodi.sourceforge.net/DTD/sodipodi-0.dtd"
   xmlns="http://www.w3.org/2000/svg"
   xmlns:svg="http://www.w3.org/2000/svg"><sodipodi:namedview
     id="namedview1"
     pagecolor="#ffffff"
     bordercolor="#666666"
     borderopacity="1.0"
     inkscape:showpageshadow="2"
     inkscape:pageopacity="0.0"
     inkscape:pagecheckerboard="0"
     inkscape:deskcolor="#d1d1d1"
     inkscape:document-units="mm"
     inkscape:zoom="1.544821"
     inkscape:cx="219.11924"
     inkscape:cy="209.40937"
     inkscape:window-width="1920"
     inkscape:window-height="1057"
     inkscape:window-x="1912"
     inkscape:window-y="-8"
     inkscape:window-maximized="1"
     inkscape:current-layer="layer1" /><defs
     id="defs1"><style
       id="style1"><![CDATA[
.bvdl-red {
  fill:#dd2f26;
  fill-opacity:1;
  stroke:none;
}
.bvdl-yellow {
  fill:#ffbd28;
  fill-opacity:1;
  stroke:none;
}
.bvdl-black {
  fill:#000000;
  fill-opacity:1;
  stroke:none;
}
.bvdl-white {
  fill:#f4f4f2;
  fill-opacity:1;
  stroke:none;
}
.bvdl-blue {
  fill:#0600b7;
  fill-opacity:1;
  stroke:none;
}
]]></style></defs><g
     inkscape:label="Layer 1"
     inkscape:groupmode="layer"
     id="layer1"><rect
       id="rect177"
       width="99.790993"
       height="99.791"
       x="0"
       y="-6.0396134e-15"
       class="bvdl-white"
       style="stroke-width:1" /></g><g
     inkscape:groupmode="layer"
     id="layer2"
     inkscape:label="Layer 2"
     transform="matrix(1.030782,0,0,1.0492972,-0.02020477,-3.3055106)"
     style="stroke-width:0.96154"><path
       style="stroke-width:0.0961539;stroke-linecap:butt;stroke-linejoin:miter;stroke-dasharray:none;stroke-opacity:1"
       d="m 11.190697,21.719348 h 2.739978 l 3.365397,3.365397 h -2.739978 z"
       id="path11"
       class="bvdl-blue" /><path
       style="stroke-width:0.0961539;stroke-linecap:butt;stroke-linejoin:miter;stroke-dasharray:none;stroke-opacity:1"
       d="m 26.643621,3.1502138 h 34.168458 l 2.525175,1.6000687 H 24.733539 Z"
       id="path13"
       class="bvdl-blue" /><path
       style="stroke-width:0.0961539;stroke-linecap:butt;stroke-linejoin:miter;stroke-dasharray:none;stroke-opacity:1"
       d="m 71.01166,4.6953175 h 14.043517 l 2.986577,1.7350597 H 71.01166 Z"
       id="path16"
       class="bvdl-blue" /><path
       style="stroke-width:0.0961539;stroke-linecap:butt;stroke-linejoin:miter;stroke-dasharray:none;stroke-opacity:1"
       d="M 66.906099,9.3777669 88.642025,9.5832106 86.695771,11.311481 H 64.385107 Z"
       id="path20"
       class="bvdl-red" /><path
       style="stroke-width:0.0961539;stroke-linecap:butt;stroke-linejoin:miter;stroke-dasharray:none;stroke-opacity:1"
       d="m 89.185529,9.5983946 7.644609,0.018901 0.02003,1.6908004 h -9.60767 z"
       id="path21"
       sodipodi:nodetypes="ccccc"
       class="bvdl-blue" /><path
       d="M 53.809119,8.6382324 51.75188,10.438639 h 6.002217 l 2.057239,-1.8004066 z"
       style="stroke-width:0.0961539;stroke-dasharray:none"
       id="path4"
       class="bvdl-blue" /><path
       d="m 39.263664,8.6382324 -2.057239,1.8004066 h 1.936833 11.939839 L 53.139819,8.6382324 H 42.599378 Z"
       style="stroke-width:0.0961539;stroke-dasharray:none"
       id="path3"
       class="bvdl-red" /><rect
       style="stroke-width:0.0961539;stroke-linecap:round;stroke-miterlimit:50;stroke-dasharray:none"
       id="rect4"
       width="14.852883"
       height="1.5683168"
       x="32.196625"
       y="14.391614"
       class="bvdl-blue" /><path
       d="m 59.511613,14.898832 -2.425692,1.756999 h 10.564213 l 2.426209,-1.756999 z"
       style="stroke-width:0.0961539;stroke-dasharray:none"
       id="path7"
       class="bvdl-blue" /><path
       d="m 96.830265,19.488733 -13.592452,-0.01602 -3.100586,1.809709 16.693038,0.0155 z"
       style="stroke-width:0.0961539;stroke-dasharray:none"
       id="path12"
       class="bvdl-blue" /><path
       d="M 3.9305094,9.0082357 V 10.63656 H 13.705107 L 12.378056,9.0082357 Z"
       style="stroke-width:0.0961539"
       id="path32"
       class="bvdl-red" /><path
       d="M 12.804386,9.0082357 14.13092,10.63656 H 27.232963 L 25.359176,9.0082357 Z"
       style="stroke-width:0.0961539"
       id="path33"
       class="bvdl-blue" /><path
       d="M 0,9.0082357 V 10.63656 h 3.5682576 l -0.01757,-1.6283243 z"
       style="stroke-width:0.0961539"
       id="path31"
       class="bvdl-blue" /><rect
       style="stroke:none;stroke-width:0.0961539;stroke-linecap:round;stroke-miterlimit:50;stroke-dasharray:none;stroke-opacity:1"
       id="rect33"
       width="6.5190096"
       height="1.6805985"
       x="65.971519"
       y="21.355375"
       class="bvdl-black" /><path
       d="M 17.997868,17.084229 H 9.6304199 l 2.1621421,1.715657 h 8.367448 z"
       style="stroke-width:0.254407px"
       id="path36"
       class="bvdl-red" /><path
       d="m 0.45423584,25.9271 v 1.80299 H 19.788456 L 18.141528,25.9271 Z"
       style="stroke-width:0.0961539"
       id="path45"
       class="bvdl-blue" /><path
       d="m 29.020451,25.9271 h -10.35544 l 1.646927,1.80299 h 10.824663 z"
       style="stroke-width:0.0961539"
       id="path46"
       class="bvdl-yellow" /><path
       d="m 32.991785,20.363615 -8.829952,0.08113 2.060339,1.688786 8.829952,-0.08113 z"
       style="stroke-width:0.254407px"
       id="path50"
       class="bvdl-red" /><path
       d="m 36.969836,25.562264 1.874305,1.712557 h 28.301631 l 2.210201,-1.712557 z"
       style="stroke-width:0.254407px"
       id="path55"
       class="bvdl-red" /><path
       d="m 33.842896,31.685404 h -6.03064 l 2.075842,1.79834 h 6.031157 z"
       style="stroke-width:0.0961539"
       id="path64"
       class="bvdl-red" /><path
       d="M 55.917517,31.685404 H 34.699691 l 2.075842,1.79834 h 21.217826 z"
       style="stroke-width:0.0961539"
       id="path65"
       class="bvdl-yellow" /><path
       d="m 65.544836,29.801282 -2.267561,1.79834 h 14.831652 l 2.267562,-1.79834 z"
       style="stroke-width:0.254407px"
       id="path70"
       class="bvdl-yellow" /><path
       d="M 86.482576,26.975098 66.702905,40.306067 68.234078,41.461035 89.727856,26.975098 Z"
       style="stroke:#000000;stroke-width:0.254407px"
       id="path75"
       class="bvdl-black" /><path
       d="m 96.830265,30.379024 h -9.41958 l -2.671671,2.012797 h 12.091251 z"
       style="stroke-width:0.254407px"
       id="path80"
       class="bvdl-red" /><path
       d="m 79.598759,35.411275 -1.711523,1.285193 4.733044,4.387846 1.715141,-1.288293 z"
       style="stroke-width:0.254407px"
       id="path86"
       class="bvdl-blue" /><path
       d="m 83.473975,41.875997 1.794205,1.662947 h 11.562085 v -1.662947 z"
       style="stroke-width:0.254407px"
       id="path93"
       class="bvdl-red" /><path
       d="m 90.568115,51.674365 2.785877,1.969389 h 3.476273 v -1.969389 z"
       style="stroke-width:0.254407px"
       id="path137"
       class="bvdl-red" /><path
       d="m 83.298792,56.166081 h -7.346839 l 1.856734,1.87172 h 7.346839 z"
       style="stroke-width:0.254407px"
       id="path136"
       class="bvdl-red" /><path
       d="m 92.183004,64.191947 h -7.768002 l 2.029851,2.046387 h 7.767484 z"
       style="stroke-width:0.254407px"
       id="path135"
       class="bvdl-red" /><path
       d="M 96.780139,96.197229 H 72.757833 v 2.055688 h 24.022306 z"
       style="stroke-width:0.254407px"
       id="path177"
       class="bvdl-blue" /><path
       d="m 58.627946,88.639034 2.141988,2.159558 h 31.579468 l -2.141471,-2.159558 z"
       style="stroke-width:0.254407px"
       id="path167"
       class="bvdl-red" /><path
       d="m 66.756132,61.84067 h -6.787699 l 2.099096,2.116666 h 6.788216 z"
       style="stroke-width:0.254407px"
       id="path152"
       class="bvdl-red" /><path
       d="m 2.0665405,95.765214 -0.651123,2.392102 H 20.927405 l 2.354378,-2.392102 z"
       style="stroke-width:0.254407px"
       id="path134"
       class="bvdl-yellow" /><path
       d="m 91.256445,73.157292 2.099097,2.116666 h 3.424597 v -2.116666 z"
       style="stroke-width:0.254407px"
       id="path133"
       class="bvdl-red" /><path
       d="m 50.891984,52.631413 2.160075,2.103747 h 7.415568 l -2.159558,-2.103747 z"
       style="stroke-width:0.254407px"
       id="path145"
       class="bvdl-red" /><path
       d="M 74.809387,48.270439 H 67.52146 l 1.881539,1.897041 h 7.287927 z"
       style="stroke-width:0.254407px"
       id="path138"
       class="bvdl-red" /><rect
       style="stroke:none;stroke-width:0.0961539;stroke-linecap:round;stroke-miterlimit:50;stroke-dasharray:none;stroke-opacity:1"
       id="rect97"
       width="22.919502"
       height="1.725775"
       x="36.816536"
       y="38.754246"
       class="bvdl-black" /><rect
       style="stroke-width:0.0961539;stroke-linecap:round;stroke-miterlimit:50;stroke-dasharray:none;stroke-opacity:1"
       id="rect98"
       width="2.1408899"
       height="9.7196407"
       x="45.686588"
       y="41.961441"
       class="bvdl-yellow" /><path
       d="M 3.9294759,29.065926 H 1.0216431 l 7.6036702,7.280176 1.8133257,-1.047481 z"
       style="stroke-width:0.254407px"
       id="path125"
       class="bvdl-red" /><path
       d="m 28.914514,52.631413 v 2.103747 h 8.638233 l -2.159559,-2.103747 z"
       style="stroke-width:0.254407px"
       id="path143"
       class="bvdl-blue" /><path
       d="m 36.107357,52.631413 2.160075,2.103747 H 52.341508 L 50.18195,52.631413 Z"
       style="stroke-width:0.254407px"
       id="path144"
       class="bvdl-yellow" /><path
       d="M 44.622599,61.84067 H 23.571171 v 2.116666 h 23.150525 z"
       style="stroke-width:0.254407px"
       id="path150"
       class="bvdl-blue" /><path
       d="m 55.407471,71.751693 2.007112,2.024166 h 12.774414 l -2.007112,-2.024166 z"
       style="stroke-width:0.254407px"
       id="path158"
       class="bvdl-yellow" /><path
       d="M 54.481429,71.751693 H 23.431645 v 2.024166 h 33.057413 z"
       style="stroke-width:0.254407px"
       id="path157"
       class="bvdl-blue" /><path
       d="M 68.777197,80.89377 H 19.689754 v 2.279448 h 51.348287 z"
       style="stroke-width:0.254407px"
       id="path162"
       class="bvdl-blue" /><path
       d="m 57.723608,88.639034 h -27.90424 v 2.159558 h 30.046229 z"
       style="stroke-width:0.254407px"
       id="path166"
       class="bvdl-blue" /><path
       d="M 72.258122,96.197229 H 59.634086 v 2.055688 h 12.624036 z"
       style="stroke-width:0.254407px"
       id="path176"
       class="bvdl-red" /><path
       d="m 46.737716,96.197229 v 2.055688 h 12.510347 v -2.055688 z"
       style="stroke-width:0.254407px"
       id="path175"
       class="bvdl-blue" /><path
       d="m 46.261259,96.197229 h -8.482686 v 2.055688 h 8.482686 z"
       style="stroke-width:0.254407px"
       id="path174"
       class="bvdl-red" /><path
       d="m 45.237032,61.84067 2.099097,2.116666 H 61.009196 L 58.910099,61.84067 Z"
       style="stroke-width:0.0961539"
       id="path151"
       class="bvdl-yellow" /><path
       d="m 76.348828,71.751693 h -7.16442 l 2.007112,2.024166 h 7.164938 z"
       style="stroke-width:0.0961539"
       id="path159"
       class="bvdl-red" /><path
       d="m 69.761117,80.89377 2.260327,2.279448 h 14.62443 L 84.385547,80.89377 Z"
       style="stroke-width:0.0961539"
       id="path163"
       class="bvdl-red" /><path
       d="M 8.4258423,45.716589 6.6357707,46.97336 v 10.259322 l 1.7900716,-1.256771 z"
       style="stroke-width:0.254408px"
       id="path126"
       class="bvdl-red" /><path
       d="M 16.61604,40.507605 14.647168,41.88995 V 52.376131 L 16.61604,50.994303 Z"
       style="stroke-width:0.254408px"
       id="path127"
       class="bvdl-red" /><path
       d="m 25.501803,35.883598 -2.02365,1.420068 v 10.504785 l 2.02365,-1.420585 z"
       style="stroke-width:0.254408px"
       id="path128"
       class="bvdl-red" /><path
       d="m 16.72301,64.492187 -1.969905,1.382345 V 77.847961 L 16.72301,76.4651 Z"
       style="stroke-width:0.254408px"
       id="path130"
       class="bvdl-red" /><path
       d="M 8.7803426,69.258305 6.9029378,70.575537 V 83.196989 L 8.7803426,81.87924 Z"
       style="stroke-width:0.254408px"
       id="path129"
       class="bvdl-red" /><path
       d="M 15.622819,80.669495 3.5729085,89.99399 v 2.201933 L 15.622819,82.872978 Z"
       style="stroke:none;stroke-width:0.254407px"
       id="path131"
       class="bvdl-black" /></g></svg>
